<mxfile host="www.draw.io" modified="2020-06-03T18:42:16.796Z" agent="5.0 (Windows NT 10.0; Win64; x64) AppleWebKit/537.36 (KHTML, like Gecko) Code/1.45.1 Chrome/78.0.3904.130 Electron/7.2.4 Safari/537.36" etag="aeY5nNq3qSFzt5KROiRg" version="13.1.14">
    <diagram id="6hGFLwfOUW9BJ-s0fimq" name="Page-1">
        <mxGraphModel dx="1278" dy="473" grid="1" gridSize="10" guides="1" tooltips="1" connect="1" arrows="1" fold="1" page="1" pageScale="1" pageWidth="827" pageHeight="1169" math="0" shadow="0">
            <root>
                <mxCell id="0"/>
                <mxCell id="1" parent="0"/>
                <mxCell id="255" value="-3" style="group;fillColor=#f8cecc;strokeColor=#b85450;" vertex="1" connectable="0" parent="1">
                    <mxGeometry x="40" y="760" width="320" height="160" as="geometry"/>
                </mxCell>
                <mxCell id="256" value="-3" style="rounded=0;whiteSpace=wrap;html=1;fontSize=16;" vertex="1" parent="255">
                    <mxGeometry width="320" height="40" as="geometry"/>
                </mxCell>
                <mxCell id="257" value="2" style="rounded=0;whiteSpace=wrap;html=1;fontSize=16;fillColor=#ffffee;" vertex="1" parent="255">
                    <mxGeometry y="40" width="160" height="40" as="geometry"/>
                </mxCell>
                <mxCell id="258" value="-3" style="rounded=0;whiteSpace=wrap;html=1;fontSize=16;fillColor=#ffffee;" vertex="1" parent="255">
                    <mxGeometry x="160" y="40" width="160" height="40" as="geometry"/>
                </mxCell>
                <mxCell id="259" value="3" style="rounded=0;whiteSpace=wrap;html=1;fontSize=16;fillColor=#FFFFdd;" vertex="1" parent="255">
                    <mxGeometry y="80" width="80" height="40" as="geometry"/>
                </mxCell>
                <mxCell id="260" value="" style="rounded=0;whiteSpace=wrap;html=1;fontSize=16;fillColor=#f8cecc;strokeColor=#b85450;" vertex="1" parent="255">
                    <mxGeometry x="80" y="80" width="80" height="40" as="geometry"/>
                </mxCell>
                <mxCell id="261" value="" style="rounded=0;whiteSpace=wrap;html=1;fontSize=16;fillColor=#f8cecc;strokeColor=#b85450;" vertex="1" parent="255">
                    <mxGeometry x="160" y="80" width="80" height="40" as="geometry"/>
                </mxCell>
                <mxCell id="262" value="2" style="rounded=0;whiteSpace=wrap;html=1;fontSize=16;fillColor=#FFFFdd;" vertex="1" parent="255">
                    <mxGeometry x="240" y="80" width="80" height="40" as="geometry"/>
                </mxCell>
                <mxCell id="263" value="3" style="rounded=0;whiteSpace=wrap;html=1;fontSize=16;fillColor=#FFFFcc;" vertex="1" parent="255">
                    <mxGeometry y="120" width="40" height="40" as="geometry"/>
                </mxCell>
                <mxCell id="264" value="7" style="rounded=0;whiteSpace=wrap;html=1;fontSize=16;fillColor=#FFFFcc;" vertex="1" parent="255">
                    <mxGeometry x="40" y="120" width="40" height="40" as="geometry"/>
                </mxCell>
                <mxCell id="265" value="" style="rounded=0;whiteSpace=wrap;html=1;fontSize=16;fillColor=#FFFFcc;" vertex="1" parent="255">
                    <mxGeometry x="80" y="120" width="40" height="40" as="geometry"/>
                </mxCell>
                <mxCell id="266" value="5" style="rounded=0;whiteSpace=wrap;html=1;fontSize=16;fillColor=#FFFFcc;" vertex="1" parent="255">
                    <mxGeometry x="120" y="120" width="40" height="40" as="geometry"/>
                </mxCell>
                <mxCell id="267" value="4" style="rounded=0;whiteSpace=wrap;html=1;fontSize=16;fillColor=#FFFFcc;" vertex="1" parent="255">
                    <mxGeometry x="160" y="120" width="40" height="40" as="geometry"/>
                </mxCell>
                <mxCell id="268" value="-3" style="rounded=0;whiteSpace=wrap;html=1;fontSize=16;fillColor=#FFFFcc;" vertex="1" parent="255">
                    <mxGeometry x="200" y="120" width="40" height="40" as="geometry"/>
                </mxCell>
                <mxCell id="269" value="" style="rounded=0;whiteSpace=wrap;html=1;fontSize=16;fillColor=#f8cecc;strokeColor=#b85450;" vertex="1" parent="255">
                    <mxGeometry x="240" y="120" width="40" height="40" as="geometry"/>
                </mxCell>
                <mxCell id="270" value="2" style="rounded=0;whiteSpace=wrap;html=1;fontSize=16;fillColor=#FFFFcc;" vertex="1" parent="255">
                    <mxGeometry x="280" y="120" width="40" height="40" as="geometry"/>
                </mxCell>
                <mxCell id="280" value="" style="group" vertex="1" connectable="0" parent="255">
                    <mxGeometry x="-20" y="30" width="292.5" height="122.5" as="geometry"/>
                </mxCell>
                <mxCell id="274" value="-3" style="rounded=1;whiteSpace=wrap;html=1;fillColor=#f8cecc;fontSize=16;strokeColor=#b85450;" vertex="1" parent="280">
                    <mxGeometry x="207.5" y="57.5" width="25" height="25" as="geometry"/>
                </mxCell>
                <mxCell id="276" style="edgeStyle=none;rounded=0;orthogonalLoop=1;jettySize=auto;html=1;exitX=0;exitY=0.25;exitDx=0;exitDy=0;entryX=0.875;entryY=0.75;entryDx=0;entryDy=0;entryPerimeter=0;endArrow=block;endFill=0;strokeWidth=2;fontSize=16;fillColor=#f8cecc;strokeColor=#b85450;" edge="1" parent="280" source="274">
                    <mxGeometry relative="1" as="geometry">
                        <mxPoint x="160" y="40" as="targetPoint"/>
                    </mxGeometry>
                </mxCell>
                <mxCell id="277" style="edgeStyle=none;rounded=0;orthogonalLoop=1;jettySize=auto;html=1;exitX=0;exitY=0.25;exitDx=0;exitDy=0;entryX=0.875;entryY=0.75;entryDx=0;entryDy=0;entryPerimeter=0;endArrow=block;endFill=0;strokeWidth=2;fontSize=16;fillColor=#f8cecc;strokeColor=#b85450;" edge="1" parent="280" source="278">
                    <mxGeometry relative="1" as="geometry">
                        <mxPoint x="250" y="80" as="targetPoint"/>
                    </mxGeometry>
                </mxCell>
                <mxCell id="278" value="11" style="rounded=1;whiteSpace=wrap;html=1;fillColor=#f8cecc;fontSize=16;strokeColor=#b85450;" vertex="1" parent="280">
                    <mxGeometry x="267.5" y="97.5" width="25" height="25" as="geometry"/>
                </mxCell>
                <mxCell id="312" value="2" style="ellipse;whiteSpace=wrap;html=1;fontSize=16;fillColor=#f8cecc;strokeColor=#b85450;dashed=1;" vertex="1" parent="255">
                    <mxGeometry x="87.5" y="127.5" width="25" height="25" as="geometry"/>
                </mxCell>
                <mxCell id="313" style="edgeStyle=none;rounded=0;orthogonalLoop=1;jettySize=auto;html=1;exitX=1;exitY=0;exitDx=0;exitDy=0;strokeWidth=2;fontSize=16;fillColor=#f8cecc;strokeColor=#b85450;endArrow=block;endFill=0;entryX=0.125;entryY=0.75;entryDx=0;entryDy=0;entryPerimeter=0;" edge="1" parent="255" source="314" target="258">
                    <mxGeometry relative="1" as="geometry">
                        <mxPoint x="172.5" y="70" as="targetPoint"/>
                    </mxGeometry>
                </mxCell>
                <mxCell id="314" value="2" style="ellipse;whiteSpace=wrap;html=1;fontSize=16;fillColor=#f8cecc;strokeColor=#b85450;" vertex="1" parent="255">
                    <mxGeometry x="107.5" y="87.5" width="25" height="25" as="geometry"/>
                </mxCell>
                <mxCell id="315" style="rounded=0;orthogonalLoop=1;jettySize=auto;html=1;exitX=0.5;exitY=0;exitDx=0;exitDy=0;fontSize=16;strokeWidth=2;fillColor=#f8cecc;strokeColor=#b85450;endArrow=block;endFill=0;entryX=0.25;entryY=0.75;entryDx=0;entryDy=0;entryPerimeter=0;" edge="1" parent="255" source="312" target="260">
                    <mxGeometry relative="1" as="geometry">
                        <mxPoint x="92.5" y="110" as="targetPoint"/>
                    </mxGeometry>
                </mxCell>
                <mxCell id="227" value="" style="group" vertex="1" connectable="0" parent="1">
                    <mxGeometry x="440" y="520" width="320" height="160" as="geometry"/>
                </mxCell>
                <mxCell id="210" value="-3" style="rounded=0;whiteSpace=wrap;html=1;fontSize=16;" vertex="1" parent="227">
                    <mxGeometry width="320" height="40" as="geometry"/>
                </mxCell>
                <mxCell id="212" value="-3" style="rounded=0;whiteSpace=wrap;html=1;fontSize=16;fillColor=#ffffee;" vertex="1" parent="227">
                    <mxGeometry x="160" y="40" width="160" height="40" as="geometry"/>
                </mxCell>
                <mxCell id="214" value="2" style="rounded=0;whiteSpace=wrap;html=1;fontSize=16;fillColor=#FFFFdd;" vertex="1" parent="227">
                    <mxGeometry x="80" y="80" width="80" height="40" as="geometry"/>
                </mxCell>
                <mxCell id="216" value="2" style="rounded=0;whiteSpace=wrap;html=1;fontSize=16;fillColor=#FFFFdd;" vertex="1" parent="227">
                    <mxGeometry x="240" y="80" width="80" height="40" as="geometry"/>
                </mxCell>
                <mxCell id="218" value="7" style="rounded=0;whiteSpace=wrap;html=1;fontSize=16;fillColor=#FFFFcc;" vertex="1" parent="227">
                    <mxGeometry x="40" y="120" width="40" height="40" as="geometry"/>
                </mxCell>
                <mxCell id="220" value="5" style="rounded=0;whiteSpace=wrap;html=1;fontSize=16;fillColor=#FFFFcc;" vertex="1" parent="227">
                    <mxGeometry x="120" y="120" width="40" height="40" as="geometry"/>
                </mxCell>
                <mxCell id="222" value="-3" style="rounded=0;whiteSpace=wrap;html=1;fontSize=16;fillColor=#FFFFcc;" vertex="1" parent="227">
                    <mxGeometry x="200" y="120" width="40" height="40" as="geometry"/>
                </mxCell>
                <mxCell id="224" value="2" style="rounded=0;whiteSpace=wrap;html=1;fontSize=16;fillColor=#FFFFcc;" vertex="1" parent="227">
                    <mxGeometry x="280" y="120" width="40" height="40" as="geometry"/>
                </mxCell>
                <mxCell id="230" value="" style="group" vertex="1" connectable="0" parent="227">
                    <mxGeometry y="40" width="280" height="120" as="geometry"/>
                </mxCell>
                <mxCell id="211" value="" style="rounded=0;whiteSpace=wrap;html=1;fontSize=16;fillColor=#dae8fc;strokeColor=#6c8ebf;" vertex="1" parent="230">
                    <mxGeometry width="160" height="40" as="geometry"/>
                </mxCell>
                <mxCell id="213" value="3" style="rounded=0;whiteSpace=wrap;html=1;fontSize=16;fillColor=#dae8fc;strokeColor=#6c8ebf;" vertex="1" parent="230">
                    <mxGeometry y="40" width="80" height="40" as="geometry"/>
                </mxCell>
                <mxCell id="215" value="" style="rounded=0;whiteSpace=wrap;html=1;fontSize=16;fillColor=#dae8fc;strokeColor=#6c8ebf;" vertex="1" parent="230">
                    <mxGeometry x="160" y="40" width="80" height="40" as="geometry"/>
                </mxCell>
                <mxCell id="217" value="3" style="rounded=0;whiteSpace=wrap;html=1;fontSize=16;fillColor=#dae8fc;strokeColor=#6c8ebf;" vertex="1" parent="230">
                    <mxGeometry y="80" width="40" height="40" as="geometry"/>
                </mxCell>
                <mxCell id="219" value="2" style="rounded=0;whiteSpace=wrap;html=1;fontSize=16;fillColor=#dae8fc;strokeColor=#6c8ebf;" vertex="1" parent="230">
                    <mxGeometry x="80" y="80" width="40" height="40" as="geometry"/>
                </mxCell>
                <mxCell id="221" value="4" style="rounded=0;whiteSpace=wrap;html=1;fontSize=16;fillColor=#dae8fc;strokeColor=#6c8ebf;" vertex="1" parent="230">
                    <mxGeometry x="160" y="80" width="40" height="40" as="geometry"/>
                </mxCell>
                <mxCell id="223" value="" style="rounded=0;whiteSpace=wrap;html=1;fontSize=16;fillColor=#dae8fc;strokeColor=#6c8ebf;" vertex="1" parent="230">
                    <mxGeometry x="240" y="80" width="40" height="40" as="geometry"/>
                </mxCell>
                <mxCell id="272" value="" style="group" vertex="1" connectable="0" parent="230">
                    <mxGeometry x="67.5" y="7.5" width="145" height="65" as="geometry"/>
                </mxCell>
                <mxCell id="273" value="" style="group" vertex="1" connectable="0" parent="272">
                    <mxGeometry width="145" height="65" as="geometry"/>
                </mxCell>
                <mxCell id="231" value="-3" style="rounded=1;whiteSpace=wrap;html=1;fillColor=#f8cecc;fontSize=16;strokeColor=#b85450;" vertex="1" parent="273">
                    <mxGeometry x="120" y="40" width="25" height="25" as="geometry"/>
                </mxCell>
                <mxCell id="253" value="2" style="rounded=1;whiteSpace=wrap;html=1;fillColor=#f8cecc;fontSize=16;strokeColor=#b85450;" vertex="1" parent="273">
                    <mxGeometry width="25" height="25" as="geometry"/>
                </mxCell>
                <mxCell id="233" style="edgeStyle=none;rounded=0;orthogonalLoop=1;jettySize=auto;html=1;exitX=0;exitY=0.25;exitDx=0;exitDy=0;entryX=0.875;entryY=0.75;entryDx=0;entryDy=0;entryPerimeter=0;endArrow=block;endFill=0;strokeWidth=2;fontSize=16;fillColor=#f8cecc;strokeColor=#b85450;" edge="1" parent="230" source="231" target="211">
                    <mxGeometry relative="1" as="geometry"/>
                </mxCell>
                <mxCell id="185" value="" style="group" vertex="1" connectable="0" parent="1">
                    <mxGeometry x="40" y="520" width="320" height="160" as="geometry"/>
                </mxCell>
                <mxCell id="142" value="2" style="rounded=0;whiteSpace=wrap;html=1;fontSize=16;fillColor=#FFFFee;" vertex="1" parent="185">
                    <mxGeometry y="40" width="160" height="40" as="geometry"/>
                </mxCell>
                <mxCell id="144" value="3" style="rounded=0;whiteSpace=wrap;html=1;fontSize=16;fillColor=#FFFFdd;" vertex="1" parent="185">
                    <mxGeometry y="80" width="80" height="40" as="geometry"/>
                </mxCell>
                <mxCell id="146" value="-3" style="rounded=0;whiteSpace=wrap;html=1;fontSize=16;fillColor=#FFFFdd;" vertex="1" parent="185">
                    <mxGeometry x="160" y="80" width="80" height="40" as="geometry"/>
                </mxCell>
                <mxCell id="148" value="3" style="rounded=0;whiteSpace=wrap;html=1;fontSize=16;fillColor=#FFffcc;" vertex="1" parent="185">
                    <mxGeometry y="120" width="40" height="40" as="geometry"/>
                </mxCell>
                <mxCell id="150" value="" style="rounded=0;whiteSpace=wrap;html=1;fontSize=16;fillColor=#FFffcc;" vertex="1" parent="185">
                    <mxGeometry x="80" y="120" width="40" height="40" as="geometry"/>
                </mxCell>
                <mxCell id="152" value="4" style="rounded=0;whiteSpace=wrap;html=1;fontSize=16;fillColor=#FFffcc;" vertex="1" parent="185">
                    <mxGeometry x="160" y="120" width="40" height="40" as="geometry"/>
                </mxCell>
                <mxCell id="154" value="11" style="rounded=0;whiteSpace=wrap;html=1;fontSize=16;fillColor=#FFffcc;" vertex="1" parent="185">
                    <mxGeometry x="240" y="120" width="40" height="40" as="geometry"/>
                </mxCell>
                <mxCell id="141" value="-3" style="rounded=0;whiteSpace=wrap;html=1;fontSize=16;fillColor=#d5e8d4;strokeColor=#82b366;" vertex="1" parent="185">
                    <mxGeometry width="320" height="40" as="geometry"/>
                </mxCell>
                <mxCell id="77" value="-3" style="group" parent="1" vertex="1" connectable="0">
                    <mxGeometry x="40" y="40" width="320" height="160" as="geometry"/>
                </mxCell>
                <mxCell id="78" value="-3" style="rounded=0;whiteSpace=wrap;html=1;fontSize=16;" parent="77" vertex="1">
                    <mxGeometry width="320" height="40" as="geometry"/>
                </mxCell>
                <mxCell id="79" value="3" style="rounded=0;whiteSpace=wrap;html=1;fontSize=16;fillColor=#ffffee;" parent="77" vertex="1">
                    <mxGeometry y="40" width="160" height="40" as="geometry"/>
                </mxCell>
                <mxCell id="80" value="-3" style="rounded=0;whiteSpace=wrap;html=1;fontSize=16;fillColor=#ffffee;" parent="77" vertex="1">
                    <mxGeometry x="160" y="40" width="160" height="40" as="geometry"/>
                </mxCell>
                <mxCell id="81" value="3" style="rounded=0;whiteSpace=wrap;html=1;fontSize=16;fillColor=#FFFFdd;" parent="77" vertex="1">
                    <mxGeometry y="80" width="80" height="40" as="geometry"/>
                </mxCell>
                <mxCell id="82" value="5" style="rounded=0;whiteSpace=wrap;html=1;fontSize=16;fillColor=#FFFFdd;" parent="77" vertex="1">
                    <mxGeometry x="80" y="80" width="80" height="40" as="geometry"/>
                </mxCell>
                <mxCell id="83" value="-3" style="rounded=0;whiteSpace=wrap;html=1;fontSize=16;fillColor=#FFFFdd;" parent="77" vertex="1">
                    <mxGeometry x="160" y="80" width="80" height="40" as="geometry"/>
                </mxCell>
                <mxCell id="84" value="2" style="rounded=0;whiteSpace=wrap;html=1;fontSize=16;fillColor=#FFFFdd;" parent="77" vertex="1">
                    <mxGeometry x="240" y="80" width="80" height="40" as="geometry"/>
                </mxCell>
                <mxCell id="85" value="3" style="rounded=0;whiteSpace=wrap;html=1;fontSize=16;fillColor=#FFFFcc;" parent="77" vertex="1">
                    <mxGeometry y="120" width="40" height="40" as="geometry"/>
                </mxCell>
                <mxCell id="86" value="7" style="rounded=0;whiteSpace=wrap;html=1;fontSize=16;fillColor=#FFFFcc;" parent="77" vertex="1">
                    <mxGeometry x="40" y="120" width="40" height="40" as="geometry"/>
                </mxCell>
                <mxCell id="87" value="5" style="rounded=0;whiteSpace=wrap;html=1;fontSize=16;fillColor=#FFFFcc;" parent="77" vertex="1">
                    <mxGeometry x="80" y="120" width="40" height="40" as="geometry"/>
                </mxCell>
                <mxCell id="88" value="5" style="rounded=0;whiteSpace=wrap;html=1;fontSize=16;fillColor=#FFFFcc;" parent="77" vertex="1">
                    <mxGeometry x="120" y="120" width="40" height="40" as="geometry"/>
                </mxCell>
                <mxCell id="89" value="4" style="rounded=0;whiteSpace=wrap;html=1;fontSize=16;fillColor=#FFFFcc;" parent="77" vertex="1">
                    <mxGeometry x="160" y="120" width="40" height="40" as="geometry"/>
                </mxCell>
                <mxCell id="90" value="-3" style="rounded=0;whiteSpace=wrap;html=1;fontSize=16;fillColor=#FFFFcc;" parent="77" vertex="1">
                    <mxGeometry x="200" y="120" width="40" height="40" as="geometry"/>
                </mxCell>
                <mxCell id="91" value="11" style="rounded=0;whiteSpace=wrap;html=1;fontSize=16;fillColor=#FFFFcc;" parent="77" vertex="1">
                    <mxGeometry x="240" y="120" width="40" height="40" as="geometry"/>
                </mxCell>
                <mxCell id="92" value="2" style="rounded=0;whiteSpace=wrap;html=1;fontSize=16;fillColor=#FFFFcc;" parent="77" vertex="1">
                    <mxGeometry x="280" y="120" width="40" height="40" as="geometry"/>
                </mxCell>
                <mxCell id="93" value="-3" style="group" vertex="1" connectable="0" parent="1">
                    <mxGeometry x="40" y="280" width="320" height="160" as="geometry"/>
                </mxCell>
                <mxCell id="94" value="" style="rounded=0;whiteSpace=wrap;html=1;fontSize=16;" vertex="1" parent="93">
                    <mxGeometry width="320" height="40" as="geometry"/>
                </mxCell>
                <mxCell id="95" value="" style="rounded=0;whiteSpace=wrap;html=1;fontSize=16;fillColor=#ffffee;" vertex="1" parent="93">
                    <mxGeometry y="40" width="160" height="40" as="geometry"/>
                </mxCell>
                <mxCell id="96" value="-3" style="rounded=0;whiteSpace=wrap;html=1;fontSize=16;fillColor=#ffffee;" vertex="1" parent="93">
                    <mxGeometry x="160" y="40" width="160" height="40" as="geometry"/>
                </mxCell>
                <mxCell id="97" value="3" style="rounded=0;whiteSpace=wrap;html=1;fontSize=16;fillColor=#FFFFdd;" vertex="1" parent="93">
                    <mxGeometry y="80" width="80" height="40" as="geometry"/>
                </mxCell>
                <mxCell id="98" value="" style="rounded=0;whiteSpace=wrap;html=1;fontSize=16;fillColor=#FFFFdd;" vertex="1" parent="93">
                    <mxGeometry x="80" y="80" width="80" height="40" as="geometry"/>
                </mxCell>
                <mxCell id="99" value="-3" style="rounded=0;whiteSpace=wrap;html=1;fontSize=16;fillColor=#FFFFdd;" vertex="1" parent="93">
                    <mxGeometry x="160" y="80" width="80" height="40" as="geometry"/>
                </mxCell>
                <mxCell id="100" value="2" style="rounded=0;whiteSpace=wrap;html=1;fontSize=16;fillColor=#FFFFdd;" vertex="1" parent="93">
                    <mxGeometry x="240" y="80" width="80" height="40" as="geometry"/>
                </mxCell>
                <mxCell id="101" value="3" style="rounded=0;whiteSpace=wrap;html=1;fontSize=16;fillColor=#FFFFcc;" vertex="1" parent="93">
                    <mxGeometry y="120" width="40" height="40" as="geometry"/>
                </mxCell>
                <mxCell id="102" value="7" style="rounded=0;whiteSpace=wrap;html=1;fontSize=16;fillColor=#FFFFcc;" vertex="1" parent="93">
                    <mxGeometry x="40" y="120" width="40" height="40" as="geometry"/>
                </mxCell>
                <mxCell id="103" value="" style="rounded=0;whiteSpace=wrap;html=1;fontSize=16;fillColor=#FFFFcc;" vertex="1" parent="93">
                    <mxGeometry x="80" y="120" width="40" height="40" as="geometry"/>
                </mxCell>
                <mxCell id="104" value="5" style="rounded=0;whiteSpace=wrap;html=1;fontSize=16;fillColor=#FFFFcc;" vertex="1" parent="93">
                    <mxGeometry x="120" y="120" width="40" height="40" as="geometry"/>
                </mxCell>
                <mxCell id="105" value="4" style="rounded=0;whiteSpace=wrap;html=1;fontSize=16;fillColor=#FFFFcc;" vertex="1" parent="93">
                    <mxGeometry x="160" y="120" width="40" height="40" as="geometry"/>
                </mxCell>
                <mxCell id="106" value="-3" style="rounded=0;whiteSpace=wrap;html=1;fontSize=16;fillColor=#FFFFcc;" vertex="1" parent="93">
                    <mxGeometry x="200" y="120" width="40" height="40" as="geometry"/>
                </mxCell>
                <mxCell id="107" value="11" style="rounded=0;whiteSpace=wrap;html=1;fontSize=16;fillColor=#FFFFcc;" vertex="1" parent="93">
                    <mxGeometry x="240" y="120" width="40" height="40" as="geometry"/>
                </mxCell>
                <mxCell id="108" value="2" style="rounded=0;whiteSpace=wrap;html=1;fontSize=16;fillColor=#FFFFcc;" vertex="1" parent="93">
                    <mxGeometry x="280" y="120" width="40" height="40" as="geometry"/>
                </mxCell>
                <mxCell id="109" value="2" style="ellipse;whiteSpace=wrap;html=1;fontSize=16;fillColor=#f8cecc;strokeColor=#b85450;" vertex="1" parent="93">
                    <mxGeometry x="87.5" y="127.5" width="25" height="25" as="geometry"/>
                </mxCell>
                <mxCell id="137" style="edgeStyle=none;rounded=0;orthogonalLoop=1;jettySize=auto;html=1;exitX=0.5;exitY=0;exitDx=0;exitDy=0;strokeWidth=2;fontSize=16;fillColor=#f8cecc;strokeColor=#b85450;endArrow=block;endFill=0;" edge="1" parent="93" source="127">
                    <mxGeometry relative="1" as="geometry">
                        <mxPoint x="120" y="70" as="targetPoint"/>
                    </mxGeometry>
                </mxCell>
                <mxCell id="127" value="2" style="ellipse;whiteSpace=wrap;html=1;fontSize=16;fillColor=#f8cecc;strokeColor=#b85450;" vertex="1" parent="93">
                    <mxGeometry x="107.5" y="87.5" width="25" height="25" as="geometry"/>
                </mxCell>
                <mxCell id="128" value="2" style="ellipse;whiteSpace=wrap;html=1;fontSize=16;fillColor=#f8cecc;strokeColor=#b85450;" vertex="1" parent="93">
                    <mxGeometry x="67.5" y="47.5" width="25" height="25" as="geometry"/>
                </mxCell>
                <mxCell id="133" value="-3" style="ellipse;whiteSpace=wrap;html=1;fontSize=16;dashed=1;fillColor=#f8cecc;strokeColor=#b85450;" vertex="1" parent="93">
                    <mxGeometry x="147.5" y="7.5" width="25" height="25" as="geometry"/>
                </mxCell>
                <mxCell id="138" style="rounded=0;orthogonalLoop=1;jettySize=auto;html=1;exitX=0.5;exitY=0;exitDx=0;exitDy=0;fontSize=16;strokeWidth=2;fillColor=#f8cecc;strokeColor=#b85450;endArrow=block;endFill=0;" edge="1" parent="93" source="109">
                    <mxGeometry relative="1" as="geometry">
                        <mxPoint x="100" y="110" as="targetPoint"/>
                    </mxGeometry>
                </mxCell>
                <mxCell id="139" style="edgeStyle=none;rounded=0;orthogonalLoop=1;jettySize=auto;html=1;exitX=0.5;exitY=0;exitDx=0;exitDy=0;fontSize=16;strokeWidth=2;fillColor=#f8cecc;strokeColor=#b85450;endArrow=block;endFill=0;" edge="1" parent="93" source="128">
                    <mxGeometry relative="1" as="geometry">
                        <mxPoint x="80" y="30" as="targetPoint"/>
                    </mxGeometry>
                </mxCell>
                <mxCell id="184" value="" style="group" vertex="1" connectable="0" parent="1">
                    <mxGeometry x="127.5" y="550" width="318.75" height="182.5" as="geometry"/>
                </mxCell>
                <mxCell id="181" value="" style="group" vertex="1" connectable="0" parent="184">
                    <mxGeometry x="-47.5" y="10" width="366.25" height="172.5" as="geometry"/>
                </mxCell>
                <mxCell id="143" value="" style="rounded=0;whiteSpace=wrap;html=1;fontSize=16;fillColor=#d5e8d4;strokeColor=#82b366;" vertex="1" parent="181">
                    <mxGeometry x="120" width="160" height="40" as="geometry"/>
                </mxCell>
                <mxCell id="145" value="" style="rounded=0;whiteSpace=wrap;html=1;fontSize=16;fillColor=#d5e8d4;strokeColor=#82b366;" vertex="1" parent="181">
                    <mxGeometry x="40" y="40" width="80" height="40" as="geometry"/>
                </mxCell>
                <mxCell id="147" value="2" style="rounded=0;whiteSpace=wrap;html=1;fontSize=16;fillColor=#d5e8d4;strokeColor=#82b366;" vertex="1" parent="181">
                    <mxGeometry x="200" y="40" width="80" height="40" as="geometry"/>
                </mxCell>
                <mxCell id="149" value="7" style="rounded=0;whiteSpace=wrap;html=1;fontSize=16;fillColor=#d5e8d4;strokeColor=#82b366;" vertex="1" parent="181">
                    <mxGeometry y="80" width="40" height="40" as="geometry"/>
                </mxCell>
                <mxCell id="151" value="5" style="rounded=0;whiteSpace=wrap;html=1;fontSize=16;fillColor=#d5e8d4;strokeColor=#82b366;" vertex="1" parent="181">
                    <mxGeometry x="80" y="80" width="40" height="40" as="geometry"/>
                </mxCell>
                <mxCell id="153" value="-3" style="rounded=0;whiteSpace=wrap;html=1;fontSize=16;fillColor=#d5e8d4;strokeColor=#82b366;" vertex="1" parent="181">
                    <mxGeometry x="160" y="80" width="40" height="40" as="geometry"/>
                </mxCell>
                <mxCell id="155" value="2" style="rounded=0;whiteSpace=wrap;html=1;fontSize=16;fillColor=#d5e8d4;strokeColor=#82b366;" vertex="1" parent="181">
                    <mxGeometry x="240" y="80" width="40" height="40" as="geometry"/>
                </mxCell>
                <mxCell id="304" value="" style="group" vertex="1" connectable="0" parent="181">
                    <mxGeometry x="360" y="210" width="252.5" height="122.5" as="geometry"/>
                </mxCell>
                <mxCell id="298" style="edgeStyle=none;rounded=0;orthogonalLoop=1;jettySize=auto;html=1;exitX=1;exitY=0;exitDx=0;exitDy=0;endArrow=block;endFill=0;strokeWidth=2;fontSize=16;fillColor=#f8cecc;strokeColor=#b85450;" edge="1" parent="304" source="303">
                    <mxGeometry relative="1" as="geometry">
                        <mxPoint x="252.5" as="targetPoint"/>
                    </mxGeometry>
                </mxCell>
                <mxCell id="299" value="2" style="ellipse;whiteSpace=wrap;html=1;fontSize=16;fillColor=#f8cecc;strokeColor=#b85450;dashed=1;" vertex="1" parent="304">
                    <mxGeometry y="97.5" width="25" height="25" as="geometry"/>
                </mxCell>
                <mxCell id="300" style="edgeStyle=none;rounded=0;orthogonalLoop=1;jettySize=auto;html=1;exitX=1;exitY=0;exitDx=0;exitDy=0;strokeWidth=2;fontSize=16;fillColor=#f8cecc;strokeColor=#b85450;endArrow=block;endFill=0;" edge="1" parent="304" source="301">
                    <mxGeometry relative="1" as="geometry">
                        <mxPoint x="92.5" y="40" as="targetPoint"/>
                    </mxGeometry>
                </mxCell>
                <mxCell id="301" value="2" style="ellipse;whiteSpace=wrap;html=1;fontSize=16;fillColor=#f8cecc;strokeColor=#b85450;" vertex="1" parent="304">
                    <mxGeometry x="20" y="57.5" width="25" height="25" as="geometry"/>
                </mxCell>
                <mxCell id="302" style="rounded=0;orthogonalLoop=1;jettySize=auto;html=1;exitX=0.5;exitY=0;exitDx=0;exitDy=0;fontSize=16;strokeWidth=2;fillColor=#f8cecc;strokeColor=#b85450;endArrow=block;endFill=0;" edge="1" parent="304" source="299">
                    <mxGeometry relative="1" as="geometry">
                        <mxPoint x="12.5" y="80" as="targetPoint"/>
                    </mxGeometry>
                </mxCell>
                <mxCell id="303" value="-3" style="ellipse;whiteSpace=wrap;html=1;fontSize=16;fillColor=#f8cecc;strokeColor=#b85450;" vertex="1" parent="304">
                    <mxGeometry x="140" y="17.5" width="25" height="25" as="geometry"/>
                </mxCell>
                <mxCell id="180" style="edgeStyle=none;rounded=0;orthogonalLoop=1;jettySize=auto;html=1;exitX=1;exitY=0;exitDx=0;exitDy=0;endArrow=block;endFill=0;strokeWidth=2;fontSize=16;fillColor=#f8cecc;strokeColor=#b85450;" edge="1" parent="184" source="168">
                    <mxGeometry relative="1" as="geometry">
                        <mxPoint x="252.5" as="targetPoint"/>
                    </mxGeometry>
                </mxCell>
                <mxCell id="156" value="2" style="ellipse;whiteSpace=wrap;html=1;fontSize=16;fillColor=#f8cecc;strokeColor=#b85450;dashed=1;" vertex="1" parent="184">
                    <mxGeometry y="97.5" width="25" height="25" as="geometry"/>
                </mxCell>
                <mxCell id="157" style="edgeStyle=none;rounded=0;orthogonalLoop=1;jettySize=auto;html=1;exitX=1;exitY=0;exitDx=0;exitDy=0;strokeWidth=2;fontSize=16;fillColor=#f8cecc;strokeColor=#b85450;endArrow=block;endFill=0;" edge="1" parent="184" source="158">
                    <mxGeometry relative="1" as="geometry">
                        <mxPoint x="92.5" y="40" as="targetPoint"/>
                    </mxGeometry>
                </mxCell>
                <mxCell id="158" value="2" style="ellipse;whiteSpace=wrap;html=1;fontSize=16;fillColor=#f8cecc;strokeColor=#b85450;" vertex="1" parent="184">
                    <mxGeometry x="20" y="57.5" width="25" height="25" as="geometry"/>
                </mxCell>
                <mxCell id="161" style="rounded=0;orthogonalLoop=1;jettySize=auto;html=1;exitX=0.5;exitY=0;exitDx=0;exitDy=0;fontSize=16;strokeWidth=2;fillColor=#f8cecc;strokeColor=#b85450;endArrow=block;endFill=0;" edge="1" parent="184" source="156">
                    <mxGeometry relative="1" as="geometry">
                        <mxPoint x="12.5" y="80" as="targetPoint"/>
                    </mxGeometry>
                </mxCell>
                <mxCell id="168" value="-3" style="ellipse;whiteSpace=wrap;html=1;fontSize=16;fillColor=#f8cecc;strokeColor=#b85450;" vertex="1" parent="184">
                    <mxGeometry x="140" y="17.5" width="25" height="25" as="geometry"/>
                </mxCell>
                <mxCell id="232" style="edgeStyle=none;rounded=0;orthogonalLoop=1;jettySize=auto;html=1;exitX=0;exitY=0.25;exitDx=0;exitDy=0;entryX=0.875;entryY=0.75;entryDx=0;entryDy=0;entryPerimeter=0;endArrow=block;endFill=0;strokeWidth=2;fontSize=16;fillColor=#f8cecc;strokeColor=#b85450;" edge="1" parent="1" source="226" target="215">
                    <mxGeometry relative="1" as="geometry"/>
                </mxCell>
                <mxCell id="226" value="11" style="rounded=1;whiteSpace=wrap;html=1;fillColor=#f8cecc;fontSize=16;strokeColor=#b85450;" vertex="1" parent="1">
                    <mxGeometry x="687.5" y="647.5" width="25" height="25" as="geometry"/>
                </mxCell>
                <mxCell id="254" style="edgeStyle=none;rounded=0;orthogonalLoop=1;jettySize=auto;html=1;exitX=0;exitY=0.25;exitDx=0;exitDy=0;endArrow=block;endFill=0;strokeWidth=2;fontSize=16;fillColor=#f8cecc;strokeColor=#b85450;" edge="1" parent="1" source="253">
                    <mxGeometry relative="1" as="geometry">
                        <mxPoint x="420" y="550" as="targetPoint"/>
                    </mxGeometry>
                </mxCell>
            </root>
        </mxGraphModel>
    </diagram>
</mxfile>